<mxfile host="app.diagrams.net" modified="2024-02-05T14:29:49.613Z" agent="Mozilla/5.0 (Macintosh; Intel Mac OS X 10_15_7) AppleWebKit/537.36 (KHTML, like Gecko) Chrome/120.0.0.0 Safari/537.36" etag="TSOevNLAcLaePdlLy65I" version="22.1.18" type="github">
  <diagram id="9fnjXT7nlAm7Ix4f8WDv" name="Page-1">
    <mxGraphModel dx="1426" dy="1224" grid="0" gridSize="10" guides="1" tooltips="1" connect="1" arrows="1" fold="1" page="1" pageScale="1" pageWidth="800" pageHeight="300" background="#EFF1F3" math="0" shadow="0">
      <root>
        <mxCell id="0" />
        <mxCell id="1" parent="0" />
        <mxCell id="npbD_0i8toX5Kgmq1awr-3" value="&lt;font color=&quot;#4a909b&quot;&gt;&lt;b&gt;&lt;font style=&quot;font-size: 40px;&quot;&gt;QPS = (cnt(t) - cnt(t - Δt)) / Δt&lt;/font&gt;&lt;/b&gt;&lt;br&gt;&lt;/font&gt;" style="text;html=1;strokeColor=none;fillColor=none;align=center;verticalAlign=middle;whiteSpace=wrap;rounded=0;" parent="1" vertex="1">
          <mxGeometry x="128" y="368" width="579.5" height="30" as="geometry" />
        </mxCell>
        <mxCell id="npbD_0i8toX5Kgmq1awr-7" value="&lt;font color=&quot;#4a909b&quot;&gt;&lt;b style=&quot;&quot;&gt;&lt;font style=&quot;font-size: 25px;&quot;&gt;9s&lt;/font&gt;&lt;/b&gt;&lt;br&gt;&lt;/font&gt;" style="text;html=1;strokeColor=none;fillColor=none;align=center;verticalAlign=middle;whiteSpace=wrap;rounded=0;" parent="1" vertex="1">
          <mxGeometry x="358" y="503" width="101" height="30" as="geometry" />
        </mxCell>
        <mxCell id="5zGb_LtoR-WvMu9iLxvD-1" value="&lt;font color=&quot;#4a909b&quot; style=&quot;font-size: 21px;&quot;&gt;公众号：小白debug&lt;/font&gt;" style="text;html=1;strokeColor=none;fillColor=none;align=center;verticalAlign=middle;whiteSpace=wrap;rounded=0;fontSize=16;" parent="1" vertex="1">
          <mxGeometry x="93" y="503" width="282" height="30" as="geometry" />
        </mxCell>
        <mxCell id="5zGb_LtoR-WvMu9iLxvD-2" value="" style="endArrow=none;dashed=1;html=1;rounded=0;strokeWidth=3;strokeColor=#4A909B;" parent="1" edge="1">
          <mxGeometry width="50" height="50" relative="1" as="geometry">
            <mxPoint x="140" y="490" as="sourcePoint" />
            <mxPoint x="705" y="490" as="targetPoint" />
          </mxGeometry>
        </mxCell>
        <mxCell id="5zGb_LtoR-WvMu9iLxvD-5" value="" style="ellipse;whiteSpace=wrap;html=1;aspect=fixed;strokeColor=#4A909B;fillColor=#4A909B;" parent="1" vertex="1">
          <mxGeometry x="402" y="484" width="12" height="12" as="geometry" />
        </mxCell>
        <mxCell id="5zGb_LtoR-WvMu9iLxvD-7" value="&lt;font color=&quot;#4a909b&quot;&gt;&lt;b style=&quot;&quot;&gt;&lt;font style=&quot;font-size: 25px;&quot;&gt;cnt = 80&lt;/font&gt;&lt;/b&gt;&lt;br&gt;&lt;/font&gt;" style="text;html=1;strokeColor=none;fillColor=none;align=center;verticalAlign=middle;whiteSpace=wrap;rounded=0;" parent="1" vertex="1">
          <mxGeometry x="353" y="447" width="101" height="30" as="geometry" />
        </mxCell>
        <mxCell id="5zGb_LtoR-WvMu9iLxvD-8" value="&lt;font color=&quot;#4a909b&quot;&gt;&lt;b style=&quot;&quot;&gt;&lt;font style=&quot;font-size: 25px;&quot;&gt;10s&lt;/font&gt;&lt;/b&gt;&lt;br&gt;&lt;/font&gt;" style="text;html=1;strokeColor=none;fillColor=none;align=center;verticalAlign=middle;whiteSpace=wrap;rounded=0;" parent="1" vertex="1">
          <mxGeometry x="510" y="503" width="101" height="30" as="geometry" />
        </mxCell>
        <mxCell id="5zGb_LtoR-WvMu9iLxvD-9" value="" style="ellipse;whiteSpace=wrap;html=1;aspect=fixed;strokeColor=#4A909B;fillColor=#4A909B;" parent="1" vertex="1">
          <mxGeometry x="554" y="484" width="12" height="12" as="geometry" />
        </mxCell>
        <mxCell id="5zGb_LtoR-WvMu9iLxvD-10" value="&lt;font color=&quot;#4a909b&quot;&gt;&lt;b style=&quot;&quot;&gt;&lt;font style=&quot;font-size: 25px;&quot;&gt;cnt = 100&lt;/font&gt;&lt;/b&gt;&lt;br&gt;&lt;/font&gt;" style="text;html=1;strokeColor=none;fillColor=none;align=center;verticalAlign=middle;whiteSpace=wrap;rounded=0;" parent="1" vertex="1">
          <mxGeometry x="500" y="447" width="120" height="30" as="geometry" />
        </mxCell>
      </root>
    </mxGraphModel>
  </diagram>
</mxfile>
